<svg width="44" height="40" fill="none" xmlns="http://www.w3.org/2000/svg"><g clip-path="url(#clip0_1_167)"><path d="M43.518 29.2a2.667 2.667 0 00-.148-.26c-.76-1.25-2.21-2.785-4.35-4.603l-.046-.042-.023-.02-.023-.021h-.023c-.971-.847-1.587-1.417-1.845-1.708-.471-.556-.577-1.118-.319-1.688.182-.43.866-1.339 2.05-2.727a154.68 154.68 0 001.48-1.77c2.628-3.194 3.767-5.235 3.418-6.124l-.136-.207c-.091-.125-.327-.24-.706-.344-.38-.104-.866-.121-1.458-.052l-6.56.041c-.107-.034-.258-.03-.456.011l-.296.063-.114.052-.091.062a.983.983 0 00-.25.219 1.405 1.405 0 00-.228.364 32.81 32.81 0 01-2.438 4.686 44.005 44.005 0 01-1.549 2.24c-.47.63-.865 1.096-1.184 1.394-.32.299-.607.538-.866.719-.258.18-.455.257-.592.229a18.443 18.443 0 01-.387-.083 1.44 1.44 0 01-.513-.51 2.142 2.142 0 01-.262-.813 8.222 8.222 0 01-.08-.843c-.007-.236-.003-.57.012-1 .016-.43.023-.722.023-.875 0-.528.011-1.1.034-1.718.023-.618.041-1.108.057-1.468.015-.361.023-.743.023-1.146 0-.402-.027-.718-.08-.947a3.051 3.051 0 00-.239-.667 1.158 1.158 0 00-.467-.5 2.777 2.777 0 00-.763-.281c-.805-.167-1.83-.257-3.075-.27-2.825-.028-4.64.138-5.444.5-.32.152-.608.36-.866.624-.273.306-.311.472-.114.5.911.124 1.556.423 1.936.895l.137.25c.106.18.213.5.319.958.106.458.175.965.205 1.52.076 1.014.076 1.882 0 2.604a28.374 28.374 0 01-.216 1.687c-.069.402-.171.729-.308.978-.137.25-.228.403-.273.458a.379.379 0 01-.114.105 1.856 1.856 0 01-.615.104c-.213 0-.471-.097-.775-.292a5.312 5.312 0 01-.945-.802c-.327-.34-.695-.816-1.105-1.426a24.26 24.26 0 01-1.275-2.166l-.365-.604a50.519 50.519 0 01-.934-1.697 31.411 31.411 0 01-1.048-2.156 1.393 1.393 0 00-.546-.667l-.114-.062a1.61 1.61 0 00-.365-.177A2.595 2.595 0 007.7 9.59l-6.242.042c-.638 0-1.07.132-1.298.396l-.091.125c-.046.07-.069.18-.069.333 0 .153.046.34.137.562a66.342 66.342 0 002.972 5.665c1.07 1.819 2.001 3.284 2.79 4.394.79 1.11 1.595 2.16 2.415 3.145.82.986 1.363 1.617 1.629 1.895s.474.486.626.625l.57.5c.364.333.9.732 1.606 1.197a27.85 27.85 0 002.346 1.375c.858.45 1.856.819 2.996 1.103 1.138.285 2.247.4 3.325.344h2.62c.531-.042.934-.194 1.207-.458l.09-.104a1.32 1.32 0 00.171-.385c.054-.174.08-.365.08-.573a6.295 6.295 0 01.148-1.614c.113-.479.243-.84.388-1.083a2.68 2.68 0 01.49-.614c.181-.166.311-.267.387-.302.076-.035.136-.058.182-.073.364-.11.793-.003 1.287.323.494.327.957.73 1.39 1.208.433.48.953 1.017 1.56 1.614.608.597 1.139 1.041 1.594 1.333l.456.25c.304.167.699.32 1.185.458.485.14.91.174 1.275.105l5.831-.084c.577 0 1.026-.087 1.344-.26.32-.174.509-.365.57-.573.06-.208.064-.444.011-.708-.054-.264-.107-.448-.16-.552z" fill="#fff"/></g><defs><clipPath id="clip0_1_167"><path fill="#fff" d="M0 0h43.75v40H0z"/></clipPath></defs></svg>