<svg width="85" height="38" fill="none" xmlns="http://www.w3.org/2000/svg"><path d="M9.672.563a24.037 24.037 0 00-.188 2.156 51.842 51.842 0 00-.046 2.25 44.472 44.472 0 00.843 8.578 43.17 43.17 0 001.055 4.242 36.598 36.598 0 001.453 3.938 27.39 27.39 0 001.875 3.492 16.984 16.984 0 002.32 2.86 11.599 11.599 0 002.227-3.282 20.073 20.073 0 001.336-3.89c.328-1.36.547-2.727.656-4.102.11-1.375.172-2.68.188-3.914h5.156c0 1.234.055 2.53.164 3.89.11 1.36.32 2.711.633 4.055a21.28 21.28 0 001.312 3.867 12.584 12.584 0 002.203 3.328 22.885 22.885 0 003.399-4.828 34.437 34.437 0 002.367-5.695 38.265 38.265 0 001.383-6.094c.297-2.078.445-4.117.445-6.117a40.12 40.12 0 00-.281-4.828c1.375.062 2.601.156 3.68.281 1.093.125 2.039.25 2.836.375a57.92 57.92 0 012.437.469V7.5a11.547 11.547 0 00-1.523-.398c-.485-.11-.961-.227-1.43-.352 0 3.36-.328 6.477-.984 9.352-.641 2.859-1.54 5.53-2.696 8.015a37.902 37.902 0 01-4.148 6.914 50.428 50.428 0 01-5.297 5.953 33.384 33.384 0 01-3.844-4.453c-1.172-1.64-2.25-3.5-3.234-5.578-1.016 2.078-2.125 3.945-3.328 5.602a32.655 32.655 0 01-3.844 4.476 48.48 48.48 0 01-5.227-5.953 37.503 37.503 0 01-4.054-6.914c-1.125-2.484-2-5.156-2.625-8.016-.625-2.875-.938-5.992-.938-9.351-.562.125-1.11.242-1.64.351a11.24 11.24 0 00-1.547.399V1.594c0 .015.203-.016.609-.094a46.706 46.706 0 011.781-.281A49.031 49.031 0 015.97.867 65.758 65.758 0 019.672.563zM66.859.28c2.407 0 4.672.211 6.797.633 2.125.422 3.985 1.008 5.578 1.758 1.594.75 2.852 1.656 3.774 2.719.922 1.046 1.383 2.203 1.383 3.468v18.657c0 1.265-.461 2.43-1.383 3.492-.922 1.047-2.18 1.945-3.774 2.695-1.593.75-3.453 1.336-5.578 1.758-2.125.422-4.39.633-6.797.633-1.343 0-2.718-.047-4.125-.14a104.12 104.12 0 01-4.101-.4 66.274 66.274 0 01-3.703-.585 29.314 29.314 0 01-2.977-.703V2.109a29.3 29.3 0 012.977-.703 54.817 54.817 0 013.703-.562 66.351 66.351 0 014.101-.399A53.2 53.2 0 0166.86.281zm.094 5.297a42.2 42.2 0 00-3.703.14 24.957 24.957 0 00-2.695.329c-.75.125-1.375.266-1.875.422-.485.14-.883.265-1.196.375V29.53c.313.125.711.258 1.196.399.5.14 1.125.28 1.875.422.75.125 1.648.234 2.695.328a50.61 50.61 0 003.703.117c1.75 0 3.32-.14 4.711-.422 1.406-.281 2.586-.656 3.54-1.125.968-.469 1.71-1.008 2.226-1.617.515-.625.773-1.274.773-1.945v-15c0-.672-.258-1.313-.773-1.922-.516-.625-1.258-1.172-2.227-1.641-.953-.469-2.133-.844-3.539-1.125-1.39-.281-2.96-.422-4.71-.422z" fill="#34547A"/></svg>