<svg width="35" height="35" viewBox="0 0 35 35" fill="none" xmlns="http://www.w3.org/2000/svg">
<path fill-rule="evenodd" clip-rule="evenodd" d="M17.5 22.2111L29.2733 33.9844C29.898 34.6092 30.7453 34.9601 31.6288 34.9601C32.5124 34.9601 33.3597 34.6092 33.9844 33.9844C34.6091 33.3597 34.9601 32.5124 34.9601 31.6289C34.9601 30.7454 34.6091 29.8981 33.9844 29.2733L22.2066 17.5L33.9822 5.72667C34.2914 5.41733 34.5366 5.05013 34.7039 4.64602C34.8712 4.24191 34.9572 3.80881 34.9571 3.37144C34.957 2.93408 34.8707 2.50102 34.7033 2.09698C34.5358 1.69295 34.2904 1.32586 33.9811 1.01667C33.6717 0.707482 33.3045 0.462248 32.9004 0.294972C32.4963 0.127695 32.0632 0.0416517 31.6258 0.0417547C31.1885 0.0418578 30.7554 0.128105 30.3514 0.295572C29.9474 0.463039 29.5803 0.708447 29.2711 1.01778L17.5 12.7911L5.72663 1.01778C5.41958 0.699574 5.05223 0.445703 4.64602 0.270982C4.2398 0.096261 3.80286 0.00418913 3.36069 0.000139654C2.91851 -0.00390982 2.47995 0.0801435 2.07061 0.247395C1.66126 0.414647 1.28933 0.661748 0.9765 0.97428C0.663674 1.28681 0.416222 1.65852 0.248584 2.0677C0.0809466 2.47689 -0.00352015 2.91537 0.000112376 3.35755C0.0037449 3.79973 0.0954036 4.23676 0.269741 4.64313C0.444079 5.04951 0.697604 5.4171 1.01552 5.72445L12.7933 17.5L1.01774 29.2756C0.699825 29.5829 0.4463 29.9505 0.271962 30.3569C0.0976247 30.7632 0.00596486 31.2003 0.00233234 31.6425C-0.00130018 32.0846 0.0831666 32.5231 0.250804 32.9323C0.418442 33.3415 0.665894 33.7132 0.97872 34.0257C1.29155 34.3383 1.66348 34.5854 2.07283 34.7526C2.48217 34.9199 2.92073 35.0039 3.36291 34.9999C3.80508 34.9958 4.24202 34.9037 4.64824 34.729C5.05445 34.5543 5.4218 34.3004 5.72885 33.9822L17.5 22.2111Z" fill="#2E4969"/>
</svg>
